<svg width="21" height="21" viewBox="0 0 21 21" fill="none" xmlns="http://www.w3.org/2000/svg">
<path d="M8.4579 0.000156167C3.79702 0.000156167 0 3.79719 0 8.4581C0 13.119 3.79723 16.916 8.4579 16.916C10.4737 16.916 12.3253 16.2035 13.7809 15.0203L19.5044 20.7438C19.846 21.0854 20.4022 21.0854 20.7438 20.7438C21.0854 20.4022 21.0854 19.8551 20.7438 19.5133L15.0203 13.7898C16.2058 12.3337 16.9161 10.4759 16.9161 8.45794C16.9161 3.79704 13.1188 0 8.45816 0L8.4579 0.000156167ZM8.4579 1.75008C12.1729 1.75008 15.1658 4.74309 15.1658 8.45799C15.1658 12.1729 12.1728 15.1659 8.4579 15.1659C4.74302 15.1659 1.75002 12.1729 1.75002 8.45799C1.75002 4.74309 4.74302 1.75008 8.4579 1.75008V1.75008Z" fill="#CACACA"/>
</svg>
